<svg width="206" height="64" viewBox="0 0 206 64" fill="none" xmlns="http://www.w3.org/2000/svg">
<path d="M73.1469 55.6338H74.2338V61.4394H73.1146L70.1861 57.1723V61.4394H69.0991V55.6338H70.3667L73.1469 59.6783V55.6338Z" fill="#004C41"/>
<path d="M78.8622 58.1398V61.4361H77.901V60.9846C77.6043 61.3458 77.1269 61.5522 76.569 61.5522C75.7723 61.5522 75.1788 61.1974 74.9821 60.762V59.7493C75.2304 59.2235 75.8949 58.9687 76.6528 58.8784C77.4108 58.7881 77.7559 58.7301 77.8462 58.5978V58.385C77.7139 58.1302 77.4011 57.9076 76.9012 57.9076C76.3754 57.9076 75.9561 58.2043 75.7917 58.5978L74.9047 58.1785C75.1853 57.5044 75.9561 56.9787 76.8947 56.9787C77.8333 56.9787 78.6138 57.4625 78.8686 58.1366L78.8622 58.1398ZM77.843 59.3235C77.6946 59.4622 77.3495 59.5525 76.8302 59.6364C76.3045 59.717 76.0723 59.8331 75.9755 60.0234V60.3943C76.0981 60.5685 76.3464 60.7072 76.8076 60.7072C77.2689 60.7072 77.6559 60.5169 77.843 60.246V59.3235Z" fill="#004C41"/>
<path d="M83.4744 58.1398V61.4361H82.5132V60.9846C82.2165 61.3458 81.7391 61.5522 81.1812 61.5522C80.3845 61.5522 79.7911 61.1974 79.5943 60.762V59.7493C79.8427 59.2235 80.5071 58.9687 81.265 58.8784C82.023 58.7881 82.3681 58.7301 82.4584 58.5978V58.385C82.3262 58.1302 82.0133 57.9076 81.5134 57.9076C80.9876 57.9076 80.5684 58.2043 80.4039 58.5978L79.5169 58.1785C79.7975 57.5044 80.5684 56.9787 81.5069 56.9787C82.4455 56.9787 83.226 57.4625 83.4808 58.1366L83.4744 58.1398ZM82.4552 59.3235C82.3068 59.4622 81.9617 59.5525 81.4424 59.6364C80.9167 59.717 80.6845 59.8331 80.5877 60.0234V60.3943C80.7103 60.5685 80.9586 60.7072 81.4198 60.7072C81.8811 60.7072 82.2681 60.5169 82.4552 60.246V59.3235Z" fill="#004C41"/>
<path d="M84.0614 60.4588L84.9258 60.0718C85.1064 60.4653 85.5515 60.6717 85.9933 60.6717C86.3965 60.6717 86.661 60.5234 86.7674 60.3427V60.0299C86.7029 59.9073 86.5707 59.817 86.3642 59.759C86.0449 59.6783 85.6063 59.6783 85.1644 59.5364C84.6806 59.3816 84.3581 59.1171 84.2033 58.772V57.9237C84.442 57.4045 85.1322 56.9852 85.9708 56.9852C86.8738 56.9852 87.5673 57.4142 87.8221 58.0528L86.9577 58.4301C86.7835 58.0528 86.3997 57.8625 85.9643 57.8625C85.5773 57.8625 85.2967 58.0108 85.2064 58.2076V58.4882C85.2547 58.6107 85.3967 58.6946 85.5998 58.7527C85.8966 58.8333 86.3643 58.8333 86.7932 58.9655C87.2867 59.13 87.6254 59.3945 87.7705 59.7299V60.6266C87.5318 61.1362 86.8577 61.5555 85.9933 61.5555C85.0644 61.5555 84.3162 61.1265 84.0614 60.4524V60.4588Z" fill="#004C41"/>
<path d="M89.0122 60.7072V57.9528H88.2801V57.1142H88.6413C88.8219 57.1142 88.9542 57.04 89.0122 56.9078V55.6338H90.0476V57.1142H91.1087V57.9528H90.0476V60.2299C90.1217 60.4105 90.3346 60.5653 90.7539 60.5653H91.1248V61.4361C90.97 61.4684 90.7539 61.4942 90.583 61.4942C89.8089 61.4942 89.2767 61.2071 89.0122 60.704V60.7072Z" fill="#004C41"/>
<path d="M99.9332 58.1657V61.4394H98.8978V58.4366C98.7979 58.1979 98.5043 57.9334 98.0173 57.9334C97.5303 57.9334 97.211 58.214 97.1304 58.4527V61.4394H96.095V58.4366C95.9951 58.1979 95.6919 57.9334 95.2081 57.9334C94.7243 57.9334 94.4114 58.214 94.3211 58.4527V61.4394H93.2858V57.1142H94.2631V57.5657C94.5437 57.2206 94.9533 56.9916 95.4951 56.9916C96.037 56.9916 96.5466 57.2626 96.853 57.6335C97.1658 57.2464 97.6271 56.9916 98.2592 56.9916C99.1139 56.9916 99.7816 57.5754 99.9364 58.1689L99.9332 58.1657Z" fill="#004C41"/>
<path d="M104.958 60.3298C104.613 61.0942 103.839 61.5716 102.83 61.5716C101.752 61.5716 100.946 60.9555 100.675 60.1653V58.3817C100.946 57.5915 101.743 56.9852 102.813 56.9852C103.884 56.9852 104.655 57.5948 104.92 58.3817V59.6235H101.694V59.9428C101.794 60.2879 102.22 60.6588 102.852 60.6588C103.526 60.6588 103.887 60.3298 104.062 59.9525L104.958 60.3298ZM101.694 58.5785V58.843H103.907V58.5785C103.8 58.2237 103.397 57.8625 102.797 57.8625C102.197 57.8625 101.804 58.2237 101.694 58.5785Z" fill="#004C41"/>
<path d="M109.67 58.1818V61.4394H108.635V58.4527C108.529 58.1882 108.2 57.927 107.664 57.927C107.129 57.927 106.793 58.2076 106.703 58.4624V61.4394H105.668V57.1142H106.645V57.5657C106.942 57.211 107.377 56.9916 107.935 56.9916C108.838 56.9916 109.506 57.5754 109.67 58.185V58.1818Z" fill="#004C41"/>
<path d="M110.264 60.4588L111.128 60.0718C111.309 60.4653 111.754 60.6717 112.199 60.6717C112.602 60.6717 112.867 60.5234 112.973 60.3427V60.0299C112.909 59.9073 112.776 59.817 112.57 59.759C112.247 59.6783 111.812 59.6783 111.37 59.5364C110.886 59.3816 110.564 59.1171 110.409 58.772V57.9237C110.648 57.4045 111.338 56.9852 112.176 56.9852C113.08 56.9852 113.773 57.4142 114.028 58.0528L113.163 58.4301C112.989 58.0528 112.605 57.8625 112.17 57.8625C111.783 57.8625 111.502 58.0108 111.412 58.2076V58.4882C111.46 58.6107 111.602 58.6946 111.806 58.7527C112.102 58.8333 112.57 58.8333 112.999 58.9655C113.492 59.13 113.831 59.3945 113.976 59.7299V60.6266C113.738 61.1362 113.063 61.5555 112.199 61.5555C111.27 61.5555 110.522 61.1265 110.267 60.4524L110.264 60.4588Z" fill="#004C41"/>
<path d="M118.924 60.3298C118.579 61.0942 117.805 61.5716 116.795 61.5716C115.718 61.5716 114.912 60.9555 114.641 60.1653V58.3817C114.912 57.5915 115.708 56.9852 116.779 56.9852C117.85 56.9852 118.621 57.5948 118.885 58.3817V59.6235H115.663V59.9428C115.763 60.2879 116.189 60.6588 116.821 60.6588C117.495 60.6588 117.856 60.3298 118.03 59.9525L118.927 60.3298H118.924ZM115.66 58.5785V58.843H117.872V58.5785C117.766 58.2237 117.363 57.8625 116.763 57.8625C116.163 57.8625 115.769 58.2237 115.66 58.5785Z" fill="#004C41"/>
<path d="M123.636 58.1818V61.4394H122.601V58.4527C122.494 58.1882 122.165 57.927 121.63 57.927C121.094 57.927 120.759 58.2076 120.669 58.4624V61.4394H119.633V57.1142H120.611V57.5657C120.907 57.211 121.343 56.9916 121.901 56.9916C122.804 56.9916 123.472 57.5754 123.636 58.185V58.1818Z" fill="#004C41"/>
<path d="M124.352 61.1844V60.5748C124.452 60.3781 124.697 60.2362 125.01 60.2362C125.323 60.2362 125.562 60.3749 125.668 60.5748V61.1909C125.562 61.3876 125.323 61.5198 125.01 61.5198C124.697 61.5198 124.452 61.3876 124.352 61.1844Z" fill="#004C41"/>
<path d="M131.767 55.6338H132.86V55.8563L130.648 61.4394H129.258L127.055 55.8563V55.6338H128.174L129.967 60.2815L131.767 55.6338Z" fill="#004C41"/>
<path d="M132.657 60.1653V58.3817C132.938 57.5915 133.783 56.9852 134.86 56.9852C135.937 56.9852 136.786 57.5948 137.063 58.3817V60.1653C136.782 60.9555 135.944 61.5716 134.86 61.5716C133.776 61.5716 132.935 60.9555 132.657 60.1653ZM136.028 59.9202V58.6462C135.921 58.2914 135.476 57.9302 134.86 57.9302C134.244 57.9302 133.809 58.2914 133.693 58.6462V59.9202C133.809 60.2653 134.251 60.6266 134.86 60.6266C135.47 60.6266 135.921 60.2653 136.028 59.9202Z" fill="#004C41"/>
<path d="M137.773 60.1653V58.3817C138.053 57.5915 138.898 56.9852 139.975 56.9852C141.053 56.9852 141.901 57.5948 142.178 58.3817V60.1653C141.898 60.9555 141.059 61.5716 139.975 61.5716C138.892 61.5716 138.05 60.9555 137.773 60.1653ZM141.143 59.9202V58.6462C141.037 58.2914 140.592 57.9302 139.975 57.9302C139.359 57.9302 138.924 58.2914 138.808 58.6462V59.9202C138.924 60.2653 139.366 60.6266 139.975 60.6266C140.585 60.6266 141.037 60.2653 141.143 59.9202Z" fill="#004C41"/>
<path d="M145.462 57.1142V58.1334H145.175C144.41 58.1334 144.072 58.4946 143.975 58.7817V61.4393H142.94V57.1142H143.917V57.7077C144.146 57.3367 144.533 57.0658 145.094 57.0658C145.21 57.0658 145.375 57.0819 145.465 57.1142H145.462Z" fill="#004C41"/>
<path d="M150.7 57.1142H151.712V57.3206L150.077 61.4393H148.91L147.281 57.3206V57.1142H148.316L149.51 60.2556L150.703 57.1142H150.7Z" fill="#004C41"/>
<path d="M156.325 60.3298C155.98 61.0942 155.205 61.5716 154.196 61.5716C153.119 61.5716 152.312 60.9555 152.041 60.1653V58.3817C152.312 57.5915 153.109 56.9852 154.18 56.9852C155.251 56.9852 156.021 57.5948 156.286 58.3817V59.6235H153.064V59.9428C153.164 60.2879 153.59 60.6588 154.222 60.6588C154.896 60.6588 155.257 60.3298 155.431 59.9525L156.328 60.3298H156.325ZM153.061 58.5785V58.843H155.273V58.5785C155.167 58.2237 154.764 57.8625 154.164 57.8625C153.564 57.8625 153.17 58.2237 153.061 58.5785Z" fill="#004C41"/>
<path d="M156.95 56.4723V55.9304C157.066 55.766 157.273 55.6434 157.56 55.6434C157.847 55.6434 158.053 55.766 158.16 55.9304V56.4723C158.053 56.6368 157.837 56.7594 157.56 56.7594C157.283 56.7594 157.066 56.6368 156.95 56.4723ZM157.041 61.4393V57.1141H158.076V61.4393H157.041Z" fill="#004C41"/>
<path d="M159.044 61.4394V55.6338H160.079V61.4394H159.044Z" fill="#004C41"/>
<path d="M160.963 56.4723V55.9304C161.079 55.766 161.285 55.6434 161.572 55.6434C161.859 55.6434 162.066 55.766 162.172 55.9304V56.4723C162.066 56.6368 161.85 56.7594 161.572 56.7594C161.295 56.7594 161.079 56.6368 160.963 56.4723ZM161.053 61.4393V57.1141H162.088V61.4393H161.053Z" fill="#004C41"/>
<path d="M166.133 57.1142H167.104V61.5297C166.817 62.3199 166.017 62.894 164.917 62.894C163.882 62.894 163.075 62.4166 162.772 61.6361L163.711 61.2813C163.843 61.6361 164.252 61.9877 164.927 61.9877C165.552 61.9877 165.955 61.6683 166.068 61.3039V60.6782C165.739 60.9749 165.304 61.162 164.769 61.162C163.791 61.162 163.059 60.5621 162.811 59.8041V58.3495C163.056 57.5851 163.788 56.9852 164.769 56.9852C165.346 56.9852 165.804 57.1916 166.133 57.527V57.1077V57.1142ZM166.068 59.6557V58.514C165.904 58.2108 165.517 57.9367 164.981 57.9367C164.381 57.9367 163.962 58.2753 163.846 58.6107V59.5654C163.962 59.9041 164.381 60.2395 164.981 60.2395C165.517 60.2395 165.904 59.9686 166.068 59.6557Z" fill="#004C41"/>
<path d="M171.913 58.1818V61.4394H170.877V58.4463C170.771 58.1818 170.442 57.927 169.906 57.927C169.371 57.927 169.036 58.2076 168.945 58.4527V61.4394H167.91V55.6338H168.945V57.4916C169.242 57.1787 169.652 56.982 170.181 56.982C171.084 56.982 171.751 57.5658 171.916 58.1818H171.913Z" fill="#004C41"/>
<path d="M176.947 60.3298C176.602 61.0942 175.828 61.5716 174.819 61.5716C173.741 61.5716 172.935 60.9555 172.664 60.1653V58.3817C172.935 57.5915 173.732 56.9852 174.802 56.9852C175.873 56.9852 176.644 57.5948 176.909 58.3817V59.6235H173.687V59.9428C173.787 60.2879 174.212 60.6588 174.844 60.6588C175.519 60.6588 175.88 60.3298 176.054 59.9525L176.951 60.3298H176.947ZM173.683 58.5785V58.843H175.896V58.5785C175.789 58.2237 175.386 57.8625 174.786 57.8625C174.186 57.8625 173.793 58.2237 173.683 58.5785Z" fill="#004C41"/>
<path d="M177.573 56.4723V55.9304C177.689 55.766 177.896 55.6434 178.183 55.6434C178.47 55.6434 178.676 55.766 178.783 55.9304V56.4723C178.676 56.6368 178.46 56.7594 178.183 56.7594C177.905 56.7594 177.689 56.6368 177.573 56.4723ZM177.663 61.4393V57.1141H178.699V61.4393H177.663Z" fill="#004C41"/>
<path d="M182.766 55.6338H183.801V61.4394H182.824V60.9878C182.495 61.3426 182.034 61.5652 181.45 61.5652C180.463 61.5652 179.705 60.9556 179.46 60.1686V58.385C179.705 57.6045 180.463 56.9884 181.45 56.9884C182.001 56.9884 182.446 57.1852 182.766 57.498V55.6338ZM182.766 58.5043C182.592 58.2011 182.188 57.927 181.647 57.927C181.037 57.927 180.611 58.2882 180.495 58.643V59.9106C180.611 60.2653 181.037 60.6266 181.647 60.6266C182.188 60.6266 182.592 60.3557 182.766 60.0525V58.5043Z" fill="#004C41"/>
<path d="M184.53 61.1844V60.5748C184.63 60.3781 184.875 60.2362 185.188 60.2362C185.501 60.2362 185.74 60.3749 185.846 60.5748V61.1909C185.74 61.3876 185.501 61.5198 185.188 61.5198C184.875 61.5198 184.63 61.3876 184.53 61.1844Z" fill="#004C41"/>
<path d="M183.801 48.6376V32.8271C182.579 29.5953 178.873 27.2666 174.338 27.2666C169.803 27.2666 166.139 29.7888 164.798 33.0238L169.055 35.0332C169.845 33.1399 171.855 31.7208 174.377 31.7208C176.899 31.7208 178.279 32.7851 178.912 34.0075V35.0332C178.479 35.6654 176.822 35.9395 173.196 36.3749C169.571 36.8071 166.375 38.0295 165.194 40.5549V45.4058C166.139 47.4958 168.981 49.1891 172.803 49.1891C175.483 49.1891 177.77 48.2022 179.189 46.4702V48.6376H183.801ZM178.912 42.9223C178.005 44.2221 176.112 45.1317 173.945 45.1317C171.777 45.1317 170.555 44.4608 169.961 43.6319V41.858C170.435 40.9516 171.538 40.4001 174.061 40.0066C176.544 39.6131 178.199 39.1777 178.908 38.5101V42.9255L178.912 42.9223ZM158.74 21.332V29.7146C157.202 28.2149 155.073 27.2698 152.432 27.2698C147.7 27.2698 144.075 30.2275 142.891 33.9721V42.5288C144.075 46.3154 147.7 49.231 152.432 49.231C155.231 49.231 157.437 48.1667 159.015 46.4702V48.6376H163.707V21.332H158.74ZM158.74 41.9741C157.911 43.4319 155.98 44.7349 153.38 44.7349C150.461 44.7349 148.413 42.9997 147.861 41.3064V35.2364C148.413 33.5399 150.464 31.8079 153.38 31.8079C155.983 31.8079 157.915 33.1077 158.74 34.5687V41.9805V41.9741ZM132.893 49.2278C128.439 49.2278 124.849 47.1765 123.63 43.9447L127.768 42.0902C128.635 43.9834 130.764 44.9672 132.893 44.9672C134.825 44.9672 136.086 44.2576 136.599 43.39V41.8934C136.283 41.3032 135.654 40.8678 134.667 40.5936C133.128 40.2001 131.038 40.2001 128.909 39.5293C126.584 38.781 125.046 37.5199 124.297 35.8621V31.8014C125.439 29.3179 128.751 27.3085 132.773 27.3085C137.111 27.3085 140.421 29.3598 141.643 32.4336L137.505 34.2462C136.676 32.4336 134.825 31.5273 132.735 31.5273C130.883 31.5273 129.542 32.2368 129.106 33.1819V34.5236C129.342 35.1138 130.012 35.5105 130.999 35.7847C132.419 36.1782 134.667 36.1782 136.715 36.8103C139.079 37.5973 140.698 38.8616 141.408 40.4775V44.7737C140.263 47.2184 137.031 49.2278 132.893 49.2278ZM92.9471 27.3085C97.0465 27.3085 100.24 30.1081 100.991 32.9464V48.6376H96.0241V34.2462C95.55 33.1012 94.1308 31.8401 91.8054 31.8401C89.4799 31.8401 87.9414 33.1819 87.5479 34.3236V48.6344H82.581V34.243C82.1068 33.098 80.649 31.8369 78.3235 31.8369C75.9981 31.8369 74.4983 33.1786 74.0661 34.3204V48.6311H69.0991V27.873H73.792V30.063C75.1337 28.4084 77.1044 27.3021 79.704 27.3021C82.3036 27.3021 84.7516 28.6019 86.2094 30.3758C87.706 28.5213 89.9153 27.3021 92.9504 27.3021M112.922 44.8865C109.886 44.8865 107.835 43.1126 107.364 41.458V39.9195H122.817V33.9656C121.556 30.1791 117.769 27.2634 112.725 27.2634C107.68 27.2634 103.775 30.1823 102.475 33.9656V42.5224C103.775 46.3089 107.638 49.2633 112.802 49.2633C117.366 49.2633 120.917 47.2378 122.701 43.9415L118.443 42.0192C117.531 43.6029 115.837 44.8865 112.918 44.8865H112.922ZM107.364 34.9106C107.877 33.2141 109.809 31.4821 112.647 31.4821C115.486 31.4821 117.456 33.2173 117.969 34.9106V36.1717H107.364V34.9106ZM201.211 27.873V29.9049C199.634 28.289 197.428 27.3021 194.667 27.3021C189.974 27.3021 186.465 30.1791 185.285 33.8463V40.8259C186.468 44.4543 189.978 47.3313 194.667 47.3313C197.228 47.3313 199.318 46.425 200.895 45.0059V48.0022C200.344 49.7374 198.412 51.2759 195.416 51.2759C192.184 51.2759 190.213 49.5794 189.581 47.8861L185.194 49.8439C186.73 53.4336 190.526 55.6139 195.377 55.6139C200.66 55.6139 204.485 52.8531 205.862 49.0698V27.8762H201.211V27.873ZM200.895 40.0776C200.105 41.5741 198.254 42.8772 195.69 42.8772C192.813 42.8772 190.8 41.2613 190.249 39.6454V35.0719C190.8 33.456 192.809 31.8401 195.69 31.8401C198.254 31.8401 200.105 33.1399 200.895 34.601V40.0808V40.0776Z" fill="#004C41"/>
<path d="M53.7886 0C43.6321 0 35.2656 7.16988 33.2756 14.5397V48.6378H30.7147V14.5397C28.7279 7.16988 20.3614 0 10.2049 0H0V64H10.192C15.2848 64 19.4777 60.407 20.4775 56.7108V30.7212H21.8386C22.4385 30.7212 23.0385 31.3211 23.0385 31.921V61.4391H40.9583V31.9178C40.9583 31.3178 41.626 30.7179 42.2259 30.7179H43.5192V56.7076C44.5191 60.4038 48.9668 63.9968 53.8048 63.9968H63.9968V0H53.7919H53.7886Z" fill="#004C41"/>
</svg>
