<?xml version="1.0" encoding="UTF-8" standalone="no"?>
<svg
   width="218"
   height="76"
   viewBox="-6 -6 218 76"
   fill="none"
   version="1.1"
   id="svg29"
   sodipodi:docname="Van Mesdag.svg"
   inkscape:version="1.3.2 (091e20e, 2023-11-25, custom)"
   xmlns:inkscape="http://www.inkscape.org/namespaces/inkscape"
   xmlns:sodipodi="http://sodipodi.sourceforge.net/DTD/sodipodi-0.dtd"
   xmlns="http://www.w3.org/2000/svg"
   xmlns:svg="http://www.w3.org/2000/svg">
  <defs
     id="defs29" />
  <sodipodi:namedview
     id="namedview29"
     pagecolor="#ffffff"
     bordercolor="#000000"
     borderopacity="0.25"
     inkscape:showpageshadow="2"
     inkscape:pageopacity="0.0"
     inkscape:pagecheckerboard="0"
     inkscape:deskcolor="#d1d1d1"
     inkscape:zoom="10.905234"
     inkscape:cx="108.70927"
     inkscape:cy="45.849543"
     inkscape:window-width="3840"
     inkscape:window-height="2036"
     inkscape:window-x="2088"
     inkscape:window-y="-12"
     inkscape:window-maximized="1"
     inkscape:current-layer="svg29" />
  <path
     d="m 73.1469,55.6338 h 1.0869 v 5.8056 h -1.1192 l -2.9285,-4.2671 v 4.2671 h -1.087 v -5.8056 h 1.2676 l 2.7802,4.0445 z"
     fill="#004c41"
     id="path1" />
  <path
     d="m 78.8622,58.1398 v 3.2963 H 77.901 v -0.4515 c -0.2967,0.3612 -0.7741,0.5676 -1.332,0.5676 -0.7967,0 -1.3902,-0.3548 -1.5869,-0.7902 v -1.0127 c 0.2483,-0.5258 0.9128,-0.7806 1.6707,-0.8709 0.758,-0.0903 1.1031,-0.1483 1.1934,-0.2806 V 58.385 c -0.1323,-0.2548 -0.4451,-0.4774 -0.945,-0.4774 -0.5258,0 -0.9451,0.2967 -1.1095,0.6902 l -0.887,-0.4193 c 0.2806,-0.6741 1.0514,-1.1998 1.99,-1.1998 0.9386,0 1.7191,0.4838 1.9739,1.1579 z m -1.0192,1.1837 c -0.1484,0.1387 -0.4935,0.229 -1.0128,0.3129 -0.5257,0.0806 -0.7579,0.1967 -0.8547,0.387 v 0.3709 c 0.1226,0.1742 0.3709,0.3129 0.8321,0.3129 0.4613,0 0.8483,-0.1903 1.0354,-0.4612 z"
     fill="#004c41"
     id="path2" />
  <path
     d="m 83.4744,58.1398 v 3.2963 h -0.9612 v -0.4515 c -0.2967,0.3612 -0.7741,0.5676 -1.332,0.5676 -0.7967,0 -1.3901,-0.3548 -1.5869,-0.7902 v -1.0127 c 0.2484,-0.5258 0.9128,-0.7806 1.6707,-0.8709 0.758,-0.0903 1.1031,-0.1483 1.1934,-0.2806 V 58.385 c -0.1322,-0.2548 -0.4451,-0.4774 -0.945,-0.4774 -0.5258,0 -0.945,0.2967 -1.1095,0.6902 l -0.887,-0.4193 c 0.2806,-0.6741 1.0515,-1.1998 1.99,-1.1998 0.9386,0 1.7191,0.4838 1.9739,1.1579 z m -1.0192,1.1837 c -0.1484,0.1387 -0.4935,0.229 -1.0128,0.3129 -0.5257,0.0806 -0.7579,0.1967 -0.8547,0.387 v 0.3709 c 0.1226,0.1742 0.3709,0.3129 0.8321,0.3129 0.4613,0 0.8483,-0.1903 1.0354,-0.4612 z"
     fill="#004c41"
     id="path3" />
  <path
     d="m 84.0614,60.4588 0.8644,-0.387 c 0.1806,0.3935 0.6257,0.5999 1.0675,0.5999 0.4032,0 0.6677,-0.1483 0.7741,-0.329 V 60.0299 C 86.7029,59.9073 86.5707,59.817 86.3642,59.759 86.0449,59.6783 85.6063,59.6783 85.1644,59.5364 84.6806,59.3816 84.3581,59.1171 84.2033,58.772 v -0.8483 c 0.2387,-0.5192 0.9289,-0.9385 1.7675,-0.9385 0.903,0 1.5965,0.429 1.8513,1.0676 l -0.8644,0.3773 c -0.1742,-0.3773 -0.558,-0.5676 -0.9934,-0.5676 -0.387,0 -0.6676,0.1483 -0.7579,0.3451 v 0.2806 c 0.0483,0.1225 0.1903,0.2064 0.3934,0.2645 0.2968,0.0806 0.7645,0.0806 1.1934,0.2128 0.4935,0.1645 0.8322,0.429 0.9773,0.7644 v 0.8967 c -0.2387,0.5096 -0.9128,0.9289 -1.7772,0.9289 -0.9289,0 -1.6771,-0.429 -1.9319,-1.1031 z"
     fill="#004c41"
     id="path4" />
  <path
     d="m 89.0122,60.7072 v -2.7544 h -0.7321 v -0.8386 h 0.3612 c 0.1806,0 0.3129,-0.0742 0.3709,-0.2064 v -1.274 h 1.0354 v 1.4804 h 1.0611 v 0.8386 h -1.0611 v 2.2771 c 0.0741,0.1806 0.287,0.3354 0.7063,0.3354 h 0.3709 v 0.8708 c -0.1548,0.0323 -0.3709,0.0581 -0.5418,0.0581 -0.7741,0 -1.3063,-0.2871 -1.5708,-0.7902 z"
     fill="#004c41"
     id="path5" />
  <path
     d="m 99.9332,58.1657 v 3.2737 h -1.0354 v -3.0028 c -0.0999,-0.2387 -0.3935,-0.5032 -0.8805,-0.5032 -0.487,0 -0.8063,0.2806 -0.8869,0.5193 v 2.9867 H 96.095 v -3.0028 c -0.0999,-0.2387 -0.4031,-0.5032 -0.8869,-0.5032 -0.4838,0 -0.7967,0.2806 -0.887,0.5193 v 2.9867 h -1.0353 v -4.3252 h 0.9773 v 0.4515 c 0.2806,-0.3451 0.6902,-0.5741 1.232,-0.5741 0.5419,0 1.0515,0.271 1.3579,0.6419 0.3128,-0.3871 0.7741,-0.6419 1.4062,-0.6419 0.8547,0 1.5224,0.5838 1.6772,1.1773 z"
     fill="#004c41"
     id="path6" />
  <path
     d="m 104.958,60.3298 c -0.345,0.7644 -1.119,1.2418 -2.128,1.2418 -1.078,0 -1.884,-0.6161 -2.155,-1.4063 v -1.7836 c 0.271,-0.7902 1.068,-1.3965 2.138,-1.3965 1.071,0 1.842,0.6096 2.107,1.3965 v 1.2418 h -3.226 v 0.3193 c 0.1,0.3451 0.526,0.716 1.158,0.716 0.674,0 1.035,-0.329 1.21,-0.7063 z m -3.264,-1.7513 v 0.2645 h 2.213 v -0.2645 c -0.107,-0.3548 -0.51,-0.716 -1.11,-0.716 -0.6,0 -0.993,0.3612 -1.103,0.716 z"
     fill="#004c41"
     id="path7" />
  <path
     d="m 109.67,58.1818 v 3.2576 h -1.035 v -2.9867 c -0.106,-0.2645 -0.435,-0.5257 -0.971,-0.5257 -0.535,0 -0.871,0.2806 -0.961,0.5354 v 2.977 h -1.035 v -4.3252 h 0.977 v 0.4515 c 0.297,-0.3547 0.732,-0.5741 1.29,-0.5741 0.903,0 1.571,0.5838 1.735,1.1934 z"
     fill="#004c41"
     id="path8" />
  <path
     d="m 110.264,60.4588 0.864,-0.387 c 0.181,0.3935 0.626,0.5999 1.071,0.5999 0.403,0 0.668,-0.1483 0.774,-0.329 v -0.3128 c -0.064,-0.1226 -0.197,-0.2129 -0.403,-0.2709 -0.323,-0.0807 -0.758,-0.0807 -1.2,-0.2226 -0.484,-0.1548 -0.806,-0.4193 -0.961,-0.7644 v -0.8483 c 0.239,-0.5192 0.929,-0.9385 1.767,-0.9385 0.904,0 1.597,0.429 1.852,1.0676 l -0.865,0.3773 c -0.174,-0.3773 -0.558,-0.5676 -0.993,-0.5676 -0.387,0 -0.668,0.1483 -0.758,0.3451 v 0.2806 c 0.048,0.1225 0.19,0.2064 0.394,0.2645 0.296,0.0806 0.764,0.0806 1.193,0.2128 0.493,0.1645 0.832,0.429 0.977,0.7644 v 0.8967 c -0.238,0.5096 -0.913,0.9289 -1.777,0.9289 -0.929,0 -1.677,-0.429 -1.932,-1.1031 z"
     fill="#004c41"
     id="path9" />
  <path
     d="m 118.924,60.3298 c -0.345,0.7644 -1.119,1.2418 -2.129,1.2418 -1.077,0 -1.883,-0.6161 -2.154,-1.4063 v -1.7836 c 0.271,-0.7902 1.067,-1.3965 2.138,-1.3965 1.071,0 1.842,0.6096 2.106,1.3965 v 1.2418 h -3.222 v 0.3193 c 0.1,0.3451 0.526,0.716 1.158,0.716 0.674,0 1.035,-0.329 1.209,-0.7063 l 0.897,0.3773 z m -3.264,-1.7513 v 0.2645 h 2.212 v -0.2645 c -0.106,-0.3548 -0.509,-0.716 -1.109,-0.716 -0.6,0 -0.994,0.3612 -1.103,0.716 z"
     fill="#004c41"
     id="path10" />
  <path
     d="m 123.636,58.1818 v 3.2576 h -1.035 v -2.9867 c -0.107,-0.2645 -0.436,-0.5257 -0.971,-0.5257 -0.536,0 -0.871,0.2806 -0.961,0.5354 v 2.977 h -1.036 v -4.3252 h 0.978 v 0.4515 c 0.296,-0.3547 0.732,-0.5741 1.29,-0.5741 0.903,0 1.571,0.5838 1.735,1.1934 z"
     fill="#004c41"
     id="path11" />
  <path
     d="m 124.352,61.1844 v -0.6096 c 0.1,-0.1967 0.345,-0.3386 0.658,-0.3386 0.313,0 0.552,0.1387 0.658,0.3386 v 0.6161 c -0.106,0.1967 -0.345,0.3289 -0.658,0.3289 -0.313,0 -0.558,-0.1322 -0.658,-0.3354 z"
     fill="#004c41"
     id="path12" />
  <path
     d="m 131.767,55.6338 h 1.093 v 0.2225 l -2.212,5.5831 h -1.39 l -2.203,-5.5831 v -0.2225 h 1.119 l 1.793,4.6477 z"
     fill="#004c41"
     id="path13" />
  <path
     d="m 132.657,60.1653 v -1.7836 c 0.281,-0.7902 1.126,-1.3965 2.203,-1.3965 1.077,0 1.926,0.6096 2.203,1.3965 v 1.7836 c -0.281,0.7902 -1.119,1.4063 -2.203,1.4063 -1.084,0 -1.925,-0.6161 -2.203,-1.4063 z m 3.371,-0.2451 v -1.274 c -0.107,-0.3548 -0.552,-0.716 -1.168,-0.716 -0.616,0 -1.051,0.3612 -1.167,0.716 v 1.274 c 0.116,0.3451 0.558,0.7064 1.167,0.7064 0.61,0 1.061,-0.3613 1.168,-0.7064 z"
     fill="#004c41"
     id="path14" />
  <path
     d="m 137.773,60.1653 v -1.7836 c 0.28,-0.7902 1.125,-1.3965 2.202,-1.3965 1.078,0 1.926,0.6096 2.203,1.3965 v 1.7836 c -0.28,0.7902 -1.119,1.4063 -2.203,1.4063 -1.083,0 -1.925,-0.6161 -2.202,-1.4063 z m 3.37,-0.2451 v -1.274 c -0.106,-0.3548 -0.551,-0.716 -1.168,-0.716 -0.616,0 -1.051,0.3612 -1.167,0.716 v 1.274 c 0.116,0.3451 0.558,0.7064 1.167,0.7064 0.61,0 1.062,-0.3613 1.168,-0.7064 z"
     fill="#004c41"
     id="path15" />
  <path
     d="m 145.462,57.1142 v 1.0192 h -0.287 c -0.765,0 -1.103,0.3612 -1.2,0.6483 v 2.6576 h -1.035 v -4.3251 h 0.977 v 0.5935 c 0.229,-0.371 0.616,-0.6419 1.177,-0.6419 0.116,0 0.281,0.0161 0.371,0.0484 z"
     fill="#004c41"
     id="path16" />
  <path
     d="m 150.7,57.1142 h 1.012 v 0.2064 l -1.635,4.1187 h -1.167 l -1.629,-4.1187 v -0.2064 h 1.035 l 1.194,3.1414 1.193,-3.1414 z"
     fill="#004c41"
     id="path17" />
  <path
     d="m 156.325,60.3298 c -0.345,0.7644 -1.12,1.2418 -2.129,1.2418 -1.077,0 -1.884,-0.6161 -2.155,-1.4063 v -1.7836 c 0.271,-0.7902 1.068,-1.3965 2.139,-1.3965 1.071,0 1.841,0.6096 2.106,1.3965 v 1.2418 h -3.222 v 0.3193 c 0.1,0.3451 0.526,0.716 1.158,0.716 0.674,0 1.035,-0.329 1.209,-0.7063 l 0.897,0.3773 z m -3.264,-1.7513 v 0.2645 h 2.212 v -0.2645 c -0.106,-0.3548 -0.509,-0.716 -1.109,-0.716 -0.6,0 -0.994,0.3612 -1.103,0.716 z"
     fill="#004c41"
     id="path18" />
  <path
     d="m 156.95,56.4723 v -0.5419 c 0.116,-0.1644 0.323,-0.287 0.61,-0.287 0.287,0 0.493,0.1226 0.6,0.287 v 0.5419 c -0.107,0.1645 -0.323,0.2871 -0.6,0.2871 -0.277,0 -0.494,-0.1226 -0.61,-0.2871 z m 0.091,4.967 v -4.3252 h 1.035 v 4.3252 z"
     fill="#004c41"
     id="path19" />
  <path
     d="m 159.044,61.4394 v -5.8056 h 1.035 v 5.8056 z"
     fill="#004c41"
     id="path20" />
  <path
     d="m 160.963,56.4723 v -0.5419 c 0.116,-0.1644 0.322,-0.287 0.609,-0.287 0.287,0 0.494,0.1226 0.6,0.287 v 0.5419 c -0.106,0.1645 -0.322,0.2871 -0.6,0.2871 -0.277,0 -0.493,-0.1226 -0.609,-0.2871 z m 0.09,4.967 v -4.3252 h 1.035 v 4.3252 z"
     fill="#004c41"
     id="path21" />
  <path
     d="m 166.133,57.1142 h 0.971 v 4.4155 c -0.287,0.7902 -1.087,1.3643 -2.187,1.3643 -1.035,0 -1.842,-0.4774 -2.145,-1.2579 l 0.939,-0.3548 c 0.132,0.3548 0.541,0.7064 1.216,0.7064 0.625,0 1.028,-0.3194 1.141,-0.6838 v -0.6257 c -0.329,0.2967 -0.764,0.4838 -1.299,0.4838 -0.978,0 -1.71,-0.5999 -1.958,-1.3579 v -1.4546 c 0.245,-0.7644 0.977,-1.3643 1.958,-1.3643 0.577,0 1.035,0.2064 1.364,0.5418 v -0.4193 z m -0.065,2.5415 V 58.514 c -0.164,-0.3032 -0.551,-0.5773 -1.087,-0.5773 -0.6,0 -1.019,0.3386 -1.135,0.674 v 0.9547 c 0.116,0.3387 0.535,0.6741 1.135,0.6741 0.536,0 0.923,-0.2709 1.087,-0.5838 z"
     fill="#004c41"
     id="path22" />
  <path
     d="m 171.913,58.1818 v 3.2576 h -1.036 v -2.9931 c -0.106,-0.2645 -0.435,-0.5193 -0.971,-0.5193 -0.535,0 -0.87,0.2806 -0.961,0.5257 v 2.9867 h -1.035 v -5.8056 h 1.035 v 1.8578 c 0.297,-0.3129 0.707,-0.5096 1.236,-0.5096 0.903,0 1.57,0.5838 1.735,1.1998 z"
     fill="#004c41"
     id="path23" />
  <path
     d="m 176.947,60.3298 c -0.345,0.7644 -1.119,1.2418 -2.128,1.2418 -1.078,0 -1.884,-0.6161 -2.155,-1.4063 v -1.7836 c 0.271,-0.7902 1.068,-1.3965 2.138,-1.3965 1.071,0 1.842,0.6096 2.107,1.3965 v 1.2418 h -3.222 v 0.3193 c 0.1,0.3451 0.525,0.716 1.157,0.716 0.675,0 1.036,-0.329 1.21,-0.7063 l 0.897,0.3773 z m -3.264,-1.7513 v 0.2645 h 2.213 v -0.2645 c -0.107,-0.3548 -0.51,-0.716 -1.11,-0.716 -0.6,0 -0.993,0.3612 -1.103,0.716 z"
     fill="#004c41"
     id="path24" />
  <path
     d="m 177.573,56.4723 v -0.5419 c 0.116,-0.1644 0.323,-0.287 0.61,-0.287 0.287,0 0.493,0.1226 0.6,0.287 v 0.5419 c -0.107,0.1645 -0.323,0.2871 -0.6,0.2871 -0.278,0 -0.494,-0.1226 -0.61,-0.2871 z m 0.09,4.967 v -4.3252 h 1.036 v 4.3252 z"
     fill="#004c41"
     id="path25" />
  <path
     d="m 182.766,55.6338 h 1.035 v 5.8056 h -0.977 v -0.4516 c -0.329,0.3548 -0.79,0.5774 -1.374,0.5774 -0.987,0 -1.745,-0.6096 -1.99,-1.3966 V 58.385 c 0.245,-0.7805 1.003,-1.3966 1.99,-1.3966 0.551,0 0.996,0.1968 1.316,0.5096 z m 0,2.8705 c -0.174,-0.3032 -0.578,-0.5773 -1.119,-0.5773 -0.61,0 -1.036,0.3612 -1.152,0.716 v 1.2676 c 0.116,0.3547 0.542,0.716 1.152,0.716 0.541,0 0.945,-0.2709 1.119,-0.5741 z"
     fill="#004c41"
     id="path26" />
  <path
     d="m 184.53,61.1844 v -0.6096 c 0.1,-0.1967 0.345,-0.3386 0.658,-0.3386 0.313,0 0.552,0.1387 0.658,0.3386 v 0.6161 c -0.106,0.1967 -0.345,0.3289 -0.658,0.3289 -0.313,0 -0.558,-0.1322 -0.658,-0.3354 z"
     fill="#004c41"
     id="path27" />
  <path
     d="M 183.801,48.6376 V 32.8271 c -1.222,-3.2318 -4.928,-5.5605 -9.463,-5.5605 -4.535,0 -8.199,2.5222 -9.54,5.7572 l 4.257,2.0094 c 0.79,-1.8933 2.8,-3.3124 5.322,-3.3124 2.522,0 3.902,1.0643 4.535,2.2867 v 1.0257 c -0.433,0.6322 -2.09,0.9063 -5.716,1.3417 -3.625,0.4322 -6.821,1.6546 -8.002,4.18 v 4.8509 c 0.945,2.09 3.787,3.7833 7.609,3.7833 2.68,0 4.967,-0.9869 6.386,-2.7189 v 2.1674 z m -4.889,-5.7153 c -0.907,1.2998 -2.8,2.2094 -4.967,2.2094 -2.168,0 -3.39,-0.6709 -3.984,-1.4998 V 41.858 c 0.474,-0.9064 1.577,-1.4579 4.1,-1.8514 2.483,-0.3935 4.138,-0.8289 4.847,-1.4965 v 4.4154 z M 158.74,21.332 v 8.3826 c -1.538,-1.4997 -3.667,-2.4448 -6.308,-2.4448 -4.732,0 -8.357,2.9577 -9.541,6.7023 v 8.5567 c 1.184,3.7866 4.809,6.7022 9.541,6.7022 2.799,0 5.005,-1.0643 6.583,-2.7608 v 2.1674 h 4.692 V 21.332 Z m 0,20.6421 c -0.829,1.4578 -2.76,2.7608 -5.36,2.7608 -2.919,0 -4.967,-1.7352 -5.519,-3.4285 v -6.07 c 0.552,-1.6965 2.603,-3.4285 5.519,-3.4285 2.603,0 4.535,1.2998 5.36,2.7608 v 7.4118 z m -25.847,7.2537 c -4.454,0 -8.044,-2.0513 -9.263,-5.2831 l 4.138,-1.8545 c 0.867,1.8932 2.996,2.877 5.125,2.877 1.932,0 3.193,-0.7096 3.706,-1.5772 v -1.4966 c -0.316,-0.5902 -0.945,-1.0256 -1.932,-1.2998 -1.539,-0.3935 -3.629,-0.3935 -5.758,-1.0643 -2.325,-0.7483 -3.863,-2.0094 -4.612,-3.6672 v -4.0607 c 1.142,-2.4835 4.454,-4.4929 8.476,-4.4929 4.338,0 7.648,2.0513 8.87,5.1251 l -4.138,1.8126 c -0.829,-1.8126 -2.68,-2.7189 -4.77,-2.7189 -1.852,0 -3.193,0.7095 -3.629,1.6546 v 1.3417 c 0.236,0.5902 0.906,0.9869 1.893,1.2611 1.42,0.3935 3.668,0.3935 5.716,1.0256 2.364,0.787 3.983,2.0513 4.693,3.6672 v 4.2962 c -1.145,2.4447 -4.377,4.4541 -8.515,4.4541 z M 92.9471,27.3085 c 4.0994,0 7.2929,2.7996 8.0439,5.6379 V 48.6376 H 96.0241 V 34.2462 c -0.4741,-1.145 -1.8933,-2.4061 -4.2187,-2.4061 -2.3255,0 -3.864,1.3418 -4.2575,2.4835 V 48.6344 H 82.581 V 34.243 c -0.4742,-1.145 -1.932,-2.4061 -4.2575,-2.4061 -2.3254,0 -3.8252,1.3417 -4.2574,2.4835 v 14.3107 h -4.967 V 27.873 h 4.6929 v 2.19 c 1.3417,-1.6546 3.3124,-2.7609 5.912,-2.7609 2.5996,0 5.0476,1.2998 6.5054,3.0737 1.4966,-1.8545 3.7059,-3.0737 6.741,-3.0737 m 19.9716,17.5844 c -3.036,0 -5.087,-1.7739 -5.558,-3.4285 v -1.5385 h 15.453 v -5.9539 c -1.261,-3.7865 -5.048,-6.7022 -10.092,-6.7022 -5.045,0 -8.95,2.9189 -10.25,6.7022 v 8.5568 c 1.3,3.7865 5.163,6.7409 10.327,6.7409 4.564,0 8.115,-2.0255 9.899,-5.3218 l -4.258,-1.9223 c -0.912,1.5837 -2.606,2.8673 -5.525,2.8673 z m -5.558,-9.9759 c 0.513,-1.6965 2.445,-3.4285 5.283,-3.4285 2.839,0 4.809,1.7352 5.322,3.4285 v 1.2611 h -10.605 z m 93.847,-7.0376 v 2.0319 c -1.577,-1.6159 -3.783,-2.6028 -6.544,-2.6028 -4.693,0 -8.202,2.877 -9.382,6.5442 v 6.9796 c 1.183,3.6284 4.693,6.5054 9.382,6.5054 2.561,0 4.651,-0.9063 6.228,-2.3254 v 2.9963 c -0.551,1.7352 -2.483,3.2737 -5.479,3.2737 -3.232,0 -5.203,-1.6965 -5.835,-3.3898 l -4.387,1.9578 c 1.536,3.5897 5.332,5.77 10.183,5.77 5.283,0 9.108,-2.7608 10.485,-6.5441 V 27.8762 h -4.651 z m -0.316,12.2046 c -0.79,1.4965 -2.641,2.7996 -5.205,2.7996 -2.877,0 -4.89,-1.6159 -5.441,-3.2318 v -4.5735 c 0.551,-1.6159 2.56,-3.2318 5.441,-3.2318 2.564,0 4.415,1.2998 5.205,2.7609 v 5.4798 z"
     fill="#004c41"
     id="path28" />
  <path
     d="M 53.7886,0 C 43.6321,0 35.2656,7.16988 33.2756,14.5397 V 48.6378 H 30.7147 V 14.5397 C 28.7279,7.16988 20.3614,0 10.2049,0 H 0 v 64 h 10.192 c 5.0928,0 9.2857,-3.593 10.2855,-7.2892 V 30.7212 h 1.3611 c 0.5999,0 1.1999,0.5999 1.1999,1.1998 V 61.4391 H 40.9583 V 31.9178 c 0,-0.6 0.6677,-1.1999 1.2676,-1.1999 h 1.2933 v 25.9897 c 0.9999,3.6962 5.4476,7.2892 10.2856,7.2892 h 10.192 V 0 H 53.7919 Z"
     fill="#004c41"
     id="path29" />
</svg>
